<?xml version="1.0" standalone="no"?>
<!DOCTYPE svg PUBLIC "-//W3C//DTD SVG 20010904//EN"
 "http://www.w3.org/TR/2001/REC-SVG-20010904/DTD/svg10.dtd">
<svg version="1.0" xmlns="http://www.w3.org/2000/svg"
 width="582.000000pt" height="429.000000pt" viewBox="0 0 582.000000 429.000000"
 preserveAspectRatio="xMidYMid meet">

<g transform="translate(0.000000,429.000000) scale(0.100000,-0.100000)"
fill="#000000" stroke="none">
<path d="M4298 4176 c-107 -38 -223 -91 -317 -148 -34 -21 -66 -38 -70 -39 -3
0 -49 -27 -101 -60 -52 -32 -105 -64 -118 -69 -12 -5 -25 -16 -28 -25 -3 -8
-10 -12 -15 -9 -5 3 -9 1 -9 -4 0 -5 -12 -17 -26 -27 -18 -12 -24 -13 -19 -4
3 8 1 7 -7 -2 -7 -9 -17 -18 -23 -20 -5 -2 -9 -8 -7 -12 1 -5 -2 -6 -8 -2 -12
7 -53 -19 -43 -28 3 -4 -3 -7 -13 -7 -11 0 -33 -13 -49 -30 -16 -16 -34 -30
-41 -30 -7 0 -26 -12 -42 -27 -45 -44 -159 -123 -226 -159 -34 -18 -90 -50
-126 -73 -36 -22 -81 -49 -101 -60 -35 -19 -99 -78 -99 -92 0 -4 7 -9 15 -13
25 -9 18 -36 -9 -36 -30 0 -42 16 -26 35 10 12 9 15 -6 15 -23 -1 -54 -23 -54
-39 0 -6 9 -11 19 -11 32 0 34 -19 4 -31 -26 -10 -27 -12 -10 -23 18 -14 25
-62 6 -50 -8 4 -8 1 -2 -12 12 -24 11 -43 -1 -46 -11 -3 -28 51 -20 64 3 4 0
8 -5 8 -6 0 -11 -4 -11 -10 0 -5 -9 -18 -21 -29 -13 -12 -17 -21 -10 -26 16
-9 4 -25 -18 -25 -10 0 -21 -9 -24 -20 -3 -11 -1 -18 3 -15 4 3 6 -13 3 -34
-5 -33 -2 -41 16 -50 19 -10 22 -9 31 14 5 14 12 37 14 52 7 36 23 51 32 29 4
-10 2 -22 -4 -28 -6 -6 -7 -21 -2 -38 7 -25 3 -80 -7 -80 -2 0 -40 21 -85 46
-44 25 -112 62 -150 82 -119 63 -202 160 -237 281 -27 94 -51 196 -51 218 0
10 -6 30 -14 45 -8 14 -19 43 -26 65 -45 139 -173 270 -270 277 -15 1 -35 10
-44 19 -23 23 -46 21 -46 -3 0 -13 -7 -20 -19 -20 -24 0 -36 16 -19 23 8 3 5
6 -6 6 -12 1 -16 6 -13 16 5 11 1 12 -19 5 -32 -13 -67 -13 -60 -1 5 7 -83 9
-116 2 -15 -2 -8 -20 10 -24 9 -2 4 -5 -13 -5 -16 -1 -41 -3 -55 -6 -14 -2
-28 -5 -32 -5 -4 -1 -5 -8 -2 -16 4 -8 1 -15 -6 -15 -6 0 -9 4 -5 9 9 15 -14
24 -43 16 -18 -4 -22 -9 -13 -14 9 -6 3 -10 -18 -13 -17 -2 -31 -1 -31 3 0 6
-45 -3 -90 -19 -8 -2 -49 -4 -90 -3 -50 2 -87 -3 -113 -14 -33 -14 -40 -14
-58 -1 -21 14 -21 14 2 19 20 4 19 4 -6 6 -16 0 -106 12 -200 27 -262 39 -395
56 -413 52 -16 -3 37 -14 268 -54 169 -29 206 -36 255 -54 65 -23 150 -35 141
-21 -8 13 22 3 44 -14 8 -6 37 -24 63 -39 27 -15 46 -30 44 -33 -3 -2 -43 6
-89 20 -207 61 -354 95 -578 132 -85 14 -193 33 -240 42 -47 9 -103 18 -125
20 -39 4 -39 3 -15 -10 31 -17 193 -54 275 -62 147 -15 397 -71 540 -121 226
-79 369 -270 501 -669 53 -161 74 -210 74 -173 0 9 5 18 12 20 14 5 58 -14 58
-25 0 -5 -4 -6 -8 -3 -4 2 -9 -10 -10 -28 -2 -22 3 -36 12 -39 15 -6 30 -47
41 -109 6 -38 25 -53 25 -21 0 38 32 -15 38 -62 4 -38 10 -50 34 -65 36 -22
53 -46 62 -86 5 -24 12 -31 25 -27 35 9 59 -55 35 -94 -11 -18 -11 -28 -2 -48
6 -14 16 -24 22 -22 19 6 38 -22 39 -61 1 -21 16 -61 35 -94 36 -62 48 -73 38
-33 -7 26 8 35 18 13 4 -7 4 -2 2 11 -4 21 -3 22 9 10 18 -19 24 -55 8 -51
-18 3 -16 -12 7 -55 23 -44 25 -60 8 -66 -10 -3 -10 -7 -1 -18 6 -8 11 -18 12
-22 0 -8 36 -50 81 -94 15 -15 19 -23 10 -21 -11 2 -14 -5 -12 -26 4 -38 26
-72 82 -126 26 -25 71 -79 102 -120 30 -41 83 -101 117 -134 34 -32 73 -74 86
-94 14 -20 25 -32 25 -27 1 6 10 -1 20 -14 20 -23 20 -23 20 -2 0 34 17 24 24
-14 4 -21 13 -35 21 -35 8 0 15 -4 15 -10 0 -5 -6 -10 -12 -10 -7 0 -31 -20
-53 -46 -35 -39 -52 -50 -88 -53 -5 -1 -7 -9 -6 -18 3 -34 -1 -43 -18 -43 -16
1 -16 2 2 16 20 15 19 16 -5 13 -14 -2 -26 0 -27 4 -6 17 -2 28 9 25 7 -3 21
4 32 14 17 16 18 21 6 57 -12 36 -11 40 11 62 18 18 20 24 8 27 -8 2 -20 11
-26 20 -11 13 -17 13 -35 3 -23 -12 -58 -62 -58 -84 -1 -7 -9 -30 -20 -52 -33
-69 -27 -91 45 -173 36 -40 65 -77 65 -82 0 -16 46 -59 74 -70 15 -5 44 -10
64 -9 l37 1 -39 11 c-60 19 -56 34 7 29 31 -2 57 0 61 6 4 6 -2 8 -14 5 -32
-8 -71 6 -69 25 3 33 -1 42 -30 56 -43 23 -47 45 -13 79 33 33 54 31 96 -8 15
-14 35 -25 46 -25 23 0 36 -50 20 -80 -15 -27 -7 -36 11 -14 8 10 14 37 13 61
-1 46 6 53 27 27 8 -10 21 -13 36 -9 21 5 23 2 23 -37 1 -40 2 -42 15 -24 21
28 19 63 -4 71 -11 3 -32 20 -48 38 -16 18 -41 42 -56 54 l-28 21 30 7 c16 3
39 2 49 -4 24 -13 35 7 26 45 -5 18 -2 24 10 24 9 0 16 4 16 10 0 5 13 7 30 3
20 -3 37 0 48 9 9 8 23 13 30 12 6 -1 17 -2 22 -3 6 0 10 -6 10 -12 0 -5 -4
-8 -9 -5 -5 3 -12 -1 -15 -10 -3 -8 -10 -13 -15 -10 -5 3 -12 -2 -15 -11 -9
-22 51 -83 85 -87 37 -4 80 -30 124 -76 44 -45 94 -80 64 -44 -18 22 -23 70
-8 79 13 8 -8 35 -27 35 -7 0 -15 4 -19 9 -3 6 10 8 32 5 38 -5 38 -5 17 13
-21 19 -38 73 -22 73 4 0 -1 18 -12 40 -11 21 -20 41 -20 44 0 5 62 21 73 18
19 -5 4 19 -20 32 -16 8 -23 15 -16 16 7 0 10 7 6 16 -5 15 -3 14 26 0 17 -9
29 -21 26 -26 -7 -11 34 -40 60 -41 11 -1 3 -5 -18 -8 -46 -7 -49 -24 -6 -31
18 -3 35 -12 40 -20 25 -48 60 -133 56 -137 -3 -2 -8 5 -12 16 -3 12 -10 21
-14 21 -4 0 -13 16 -20 35 -7 19 -16 35 -21 35 -5 0 -7 7 -4 15 4 9 0 16 -10
17 -9 0 -22 1 -28 2 -7 1 -12 -7 -10 -17 2 -9 -3 -17 -10 -17 -10 0 -10 -2 1
-9 9 -6 10 -10 2 -16 -9 -5 -9 -11 1 -23 10 -11 10 -16 1 -19 -9 -3 -9 -12 -2
-29 13 -36 12 -42 -13 -46 -21 -3 -20 -5 12 -23 32 -18 33 -20 13 -23 -46 -7
-23 -39 71 -101 28 -19 71 -36 98 -40 27 -5 50 -10 52 -12 2 -2 21 -29 42 -60
21 -31 57 -80 79 -110 22 -30 61 -85 85 -124 101 -158 191 -279 224 -301 20
-14 36 -29 36 -34 0 -5 9 -14 20 -20 18 -9 17 -7 -5 26 -14 20 -25 43 -25 51
0 8 -6 27 -14 41 -16 29 -66 142 -66 148 0 16 29 -5 82 -59 35 -34 99 -92 143
-127 44 -36 114 -94 155 -130 87 -75 82 -66 -57 99 -57 67 -103 125 -103 128
0 6 73 -59 100 -88 25 -27 90 -80 90 -73 0 5 -19 29 -42 54 -72 77 -104 114
-89 105 14 -8 0 12 -82 123 -22 29 -37 55 -34 59 4 3 34 -11 67 -31 112 -66
109 -54 -33 144 -50 69 -106 150 -124 180 l-33 55 6 -58 c4 -33 3 -57 -3 -57
-7 0 -32 85 -58 203 -2 9 -22 52 -44 93 -23 42 -41 80 -41 85 0 5 -15 39 -33
76 -18 38 -41 90 -51 117 -14 36 -21 45 -28 35 -7 -10 -7 -7 -3 8 6 22 -10 61
-45 113 -9 14 -34 53 -56 87 -166 265 -199 312 -221 312 -24 1 -33 21 -10 21
8 0 22 17 33 38 10 20 22 38 25 40 10 5 -2 45 -19 65 -8 9 -20 26 -26 37 -6
10 -37 62 -68 114 -32 52 -58 101 -58 110 0 31 20 26 43 -11 39 -61 133 -172
218 -257 44 -43 79 -76 79 -73 0 3 -9 26 -20 51 -10 25 -17 52 -14 60 3 7 -1
20 -8 27 -7 8 -26 32 -43 54 -16 22 -42 54 -57 70 -15 17 -28 33 -28 36 0 4
-15 22 -32 42 -18 20 -41 49 -51 66 -17 29 -17 30 4 42 19 10 25 7 48 -22 32
-42 109 -119 118 -119 4 0 -5 12 -18 28 -82 89 -119 136 -119 148 0 21 6 18
48 -24 35 -35 149 -127 182 -147 8 -5 -12 16 -45 46 -133 121 -164 156 -158
178 3 11 14 23 24 26 10 4 19 13 19 20 0 20 20 29 33 16 23 -23 29 -10 6 16
-17 18 -19 24 -7 20 27 -9 6 46 -36 95 -20 23 -34 43 -33 45 4 3 72 -15 165
-45 34 -11 62 -16 62 -11 0 5 11 9 25 9 13 0 30 6 37 13 10 12 20 12 58 1 25
-7 86 -24 135 -38 198 -54 281 -75 310 -80 17 -2 71 -14 120 -26 201 -49 235
-56 235 -50 0 3 28 3 63 -1 34 -3 64 -5 66 -3 5 4 -30 12 -159 34 -106 17
-204 42 -430 106 -146 42 -164 47 -188 45 -12 0 -57 9 -100 20 -77 21 -113 39
-78 39 10 0 34 9 52 21 37 23 49 22 299 -21 199 -34 369 -59 455 -65 47 -4 91
-12 99 -19 12 -9 13 -8 7 3 -6 10 -4 12 10 7 31 -9 139 -23 152 -18 7 2 10 8
7 13 -3 4 16 8 42 7 26 0 62 0 78 1 26 2 27 3 10 10 -11 5 -101 11 -200 14
-176 6 -325 22 -475 51 -99 19 -250 40 -275 39 -11 -1 -55 4 -97 9 -59 8 -75
13 -71 24 3 8 9 11 14 8 5 -3 9 -1 9 4 0 26 53 31 222 22 296 -15 554 -23 786
-24 180 -1 219 1 205 12 -14 10 -7 12 43 13 32 0 68 4 79 9 l20 9 -20 2 c-11
2 -213 3 -450 4 -236 0 -468 3 -515 6 -47 4 -65 3 -40 -1 37 -6 31 -7 -40 -7
-119 0 -239 11 -218 21 9 4 15 13 12 20 -11 29 24 35 202 37 98 1 240 6 314
10 74 4 230 13 345 19 213 11 249 14 365 29 36 5 86 8 112 7 25 -1 46 3 45 8
-1 4 5 10 13 12 84 20 110 29 110 37 0 13 -217 1 -540 -28 -85 -8 -299 -19
-475 -25 -176 -5 -348 -13 -382 -16 -41 -4 -63 -3 -63 4 0 6 24 13 53 16 175
17 394 39 537 56 281 32 341 40 450 57 58 9 128 18 157 19 28 1 62 8 74 14 17
10 20 9 14 -1 -6 -9 -4 -10 6 -3 8 5 26 9 42 10 15 1 29 3 32 4 3 1 9 3 14 4
5 0 12 4 16 8 4 4 14 4 23 1 11 -5 13 -3 7 8 -7 11 -5 11 10 -1 21 -17 127
-22 117 -5 -3 5 1 4 10 -2 8 -7 18 -10 21 -7 4 4 5 -2 3 -13 -3 -12 1 -20 10
-20 10 0 12 7 8 21 -6 21 -6 21 11 1 12 -14 15 -15 12 -4 -4 12 1 15 20 13 65
-7 72 29 9 45 -55 14 -69 14 -61 1 4 -6 -6 -10 -22 -9 -23 0 -25 2 -9 8 18 7
16 9 -12 19 -24 8 -54 7 -124 -4 -178 -28 -299 -44 -510 -64 -117 -11 -267
-27 -333 -36 -66 -8 -181 -21 -255 -29 -74 -8 -173 -21 -220 -30 -99 -17 -138
-19 -124 -5 5 5 52 16 104 25 185 30 336 57 415 75 44 10 107 23 140 29 33 7
83 18 110 26 28 8 88 22 135 31 47 9 105 20 130 25 25 5 56 11 70 12 14 2 34
8 45 14 11 6 45 14 75 18 30 3 78 12 105 20 28 8 74 16 103 17 28 2 52 5 52 8
0 3 29 4 64 2 55 -3 65 -7 69 -24 5 -16 12 -19 31 -16 14 3 27 1 28 -3 3 -9
107 51 108 62 0 13 -54 29 -137 40 -226 30 -772 -28 -1085 -116 -27 -7 -58
-11 -70 -8 -19 4 -20 3 -8 -6 12 -9 10 -10 -11 -6 -17 4 -44 -1 -75 -16 -30
-14 -67 -22 -96 -22 -27 0 -48 -3 -48 -8 0 -5 -7 -5 -17 -2 -12 5 -14 3 -8 -7
6 -10 1 -12 -25 -7 -36 8 -146 -17 -170 -38 -8 -7 -28 -16 -45 -20 l-30 -6 30
15 c43 21 9 19 -66 -3 -35 -10 -90 -24 -121 -30 -32 -7 -60 -17 -64 -22 -3 -6
-22 -8 -44 -4 -43 7 -225 -21 -255 -39 -23 -15 -69 -28 -104 -30 -13 -1 -29
-9 -36 -19 -7 -9 -22 -17 -33 -17 -11 0 -23 -4 -26 -9 -3 -5 -15 -7 -27 -4
-12 3 -32 -2 -47 -14 -15 -10 -52 -29 -82 -42 -30 -13 -77 -34 -103 -48 -63
-32 -71 -24 -12 13 31 20 43 34 39 44 -13 32 -16 50 -7 50 5 0 10 14 11 31 1
18 6 37 10 43 19 31 40 112 31 122 -6 8 -4 14 8 18 11 5 22 1 30 -9 12 -18 7
-45 -9 -45 -5 0 -7 -8 -4 -17 3 -10 0 -30 -8 -45 -14 -26 -6 -48 19 -48 5 0
16 -9 22 -19 15 -24 -5 -34 -53 -25 -31 6 -33 5 -32 -25 1 -37 11 -46 28 -26
7 8 23 15 36 15 12 0 26 5 29 10 3 6 12 10 19 10 8 0 31 7 51 16 29 12 35 18
24 25 -15 10 -8 12 32 9 25 -1 59 33 59 59 0 5 5 22 11 38 11 26 16 129 8 163
-4 15 32 35 146 84 33 14 105 46 160 72 55 25 150 69 210 96 61 28 142 66 180
85 39 19 84 41 100 48 17 8 55 25 85 39 113 51 173 76 181 76 5 0 19 -10 31
-22 14 -14 23 -18 26 -10 2 7 8 10 12 7 11 -7 150 126 150 144 0 10 -9 12 -32
7 -18 -4 -58 -10 -88 -15 -38 -5 -84 -23 -150 -60 -194 -110 -478 -245 -775
-371 -91 -38 -179 -87 -195 -108 -11 -14 -21 -23 -23 -21 -30 52 -31 69 -1 69
15 0 247 112 309 149 28 17 115 65 180 101 17 8 62 34 100 57 176 103 414 223
442 223 12 0 25 -5 28 -11 16 -25 71 4 143 74 67 66 87 97 62 97 -6 0 -38 -11
-72 -25 -35 -14 -68 -23 -76 -20 -7 3 -30 -2 -50 -10 -36 -14 -36 -14 -12 3
49 34 133 119 123 125 -5 3 -52 -9 -105 -27z m-88 -116 c20 -16 22 -20 8 -20
-10 0 -18 -5 -18 -10 0 -6 -8 -14 -17 -17 -10 -4 -31 -16 -48 -27 -35 -25 -42
-29 -160 -97 -129 -74 -228 -129 -320 -179 -44 -23 -116 -62 -160 -86 -44 -24
-114 -61 -155 -82 -41 -20 -84 -45 -94 -54 -11 -10 -29 -18 -40 -18 -15 0 -7
9 29 32 28 18 88 57 135 88 47 30 90 57 95 60 11 5 263 170 353 231 23 16 45
29 47 29 3 0 35 19 72 43 38 24 100 58 138 76 39 18 77 37 85 41 21 12 22 12
50 -10z m-2560 -170 c11 -8 7 -9 -15 -4 -37 8 -45 14 -19 14 10 0 26 -5 34
-10z m25 -20 c-3 -5 -1 -10 6 -10 7 0 10 -3 6 -6 -9 -9 -28 6 -22 17 4 5 8 9
11 9 3 0 2 -4 -1 -10z m-90 -10 c3 -5 -1 -10 -10 -10 -9 0 -13 5 -10 10 3 6 8
10 10 10 2 0 7 -4 10 -10z m285 -20 c0 -6 -4 -10 -10 -10 -5 0 -10 -9 -10 -20
0 -25 20 -27 21 -2 1 16 2 16 6 0 2 -10 8 -18 12 -18 4 0 7 -9 8 -20 1 -11 -3
-20 -8 -20 -6 0 -8 -4 -5 -8 5 -8 -9 -13 -36 -11 -7 0 -33 1 -58 2 -26 1 -50
8 -57 17 -11 13 -14 13 -23 0 -8 -13 -10 -13 -10 0 0 10 -3 11 -11 3 -14 -14
-39 -6 -33 12 3 7 -2 15 -11 19 -11 4 -15 1 -13 -11 2 -9 -3 -18 -10 -20 -7
-3 -12 -1 -11 4 3 19 -2 27 -10 14 -10 -16 -31 -6 -31 14 0 9 6 12 17 8 11 -4
14 -3 9 5 -4 7 -2 12 5 12 8 0 8 4 -1 15 -9 11 -9 15 -1 15 7 0 9 5 6 10 -3 6
-1 10 4 10 6 0 11 -6 11 -14 0 -20 26 -27 108 -31 56 -2 75 1 79 11 3 8 15 14
27 15 11 0 15 3 9 6 -7 2 -13 9 -13 14 0 6 8 5 20 -1 11 -6 20 -15 20 -20z
m-320 5 c0 -18 -11 -19 -34 -2 -16 11 -15 13 8 15 17 1 26 -3 26 -13z m234 -9
c-3 -8 -14 -11 -32 -7 l-27 5 30 7 c17 4 31 7 32 8 1 0 0 -5 -3 -13z m166 -27
c0 -4 -11 -2 -25 4 -14 7 -25 15 -25 19 0 4 11 2 25 -4 14 -6 25 -15 25 -19z
m-537 4 c-7 -2 -13 -11 -13 -18 0 -18 -27 -26 -34 -10 -6 16 19 35 44 34 10 0
11 -2 3 -6z m64 1 c-3 -3 -12 -4 -19 -1 -8 3 -5 6 6 6 11 1 17 -2 13 -5z m83
-27 c0 -24 -3 -28 -20 -24 -10 3 -24 -1 -31 -9 -6 -8 -20 -14 -30 -14 -23 0
-21 35 3 57 17 15 18 15 18 0 0 -10 8 -17 20 -17 11 0 20 5 20 10 0 6 -7 10
-16 10 -8 0 -13 4 -9 9 3 6 14 9 25 8 15 -1 20 -9 20 -30z m457 -2 c3 -9 3
-18 1 -21 -9 -9 -38 8 -38 22 0 19 29 18 37 -1z m-839 -8 c7 3 12 -4 12 -16
l0 -22 -30 23 c-33 24 -39 33 -12 20 9 -5 23 -7 30 -5z m88 -2 c-3 -10 1 -15
12 -16 10 0 12 -3 5 -6 -7 -2 -13 -11 -13 -19 0 -8 -6 -14 -14 -14 -8 0 -12 9
-11 23 1 12 3 28 4 35 0 6 6 12 12 12 6 0 9 -7 5 -15z m145 -23 c-6 -2 -18
-10 -26 -18 -7 -8 -16 -10 -19 -5 -7 11 28 43 37 34 4 -3 7 0 8 8 0 12 1 12 6
0 3 -8 1 -17 -6 -19z m-181 2 c0 -9 -5 -14 -12 -12 -18 6 -21 28 -4 28 9 0 16
-7 16 -16z m105 -14 c-5 -8 -11 -8 -17 -2 -6 6 -7 16 -3 22 5 8 11 8 17 2 6
-6 7 -16 3 -22z m603 14 c14 -15 14 -16 -3 -13 -10 2 -20 10 -23 17 -5 17 6
15 26 -4z m58 -37 c5 -1 8 -6 6 -12 -2 -5 -4 -18 -5 -27 -3 -39 -57 -8 -57 33
0 18 2 19 15 9 12 -10 15 -9 15 6 0 14 2 16 9 6 4 -8 12 -14 17 -15z m63 -68
c-12 -24 -13 -24 -33 6 -22 34 -12 49 19 29 20 -13 23 -20 14 -35z m-816 34
c-7 -2 -21 -2 -30 0 -10 3 -4 5 12 5 17 0 24 -2 18 -5z m457 -8 c0 -21 -27
-30 -45 -15 -23 19 -18 30 15 30 20 0 30 -5 30 -15z m150 -59 c0 -13 11 -35
25 -50 l25 -27 -38 7 c-85 16 -115 46 -91 90 7 13 16 24 21 24 4 0 8 8 8 18 1
27 50 -34 50 -62z m45 24 c3 -5 1 -10 -4 -10 -6 0 -11 5 -11 10 0 6 2 10 4 10
3 0 8 -4 11 -10z m50 -106 c27 -35 27 -36 4 -23 -13 7 -27 12 -30 11 -4 0 -9
10 -12 23 -6 35 6 31 38 -11z m-60 -24 c-3 -5 -12 -10 -18 -10 -7 0 -6 4 3 10
19 12 23 12 15 0z m-220 -71 c-4 -5 -12 -9 -18 -8 -9 0 -8 2 1 6 6 2 9 10 6
15 -4 7 -2 8 5 4 6 -4 9 -12 6 -17z m3485 -40 c0 -6 -4 -7 -10 -4 -5 3 -10 1
-10 -6 0 -7 -2 -10 -5 -7 -9 8 6 38 16 32 5 -3 9 -10 9 -15z m24 -9 c-6 -6
-10 -3 -10 10 0 13 4 16 10 10 7 -7 7 -13 0 -20z m-118 11 c-3 -5 3 -11 14
-14 12 -3 24 1 30 11 5 10 9 13 10 7 0 -30 -13 -34 -212 -65 -31 -4 -101 -18
-155 -29 -136 -30 -215 -46 -378 -75 -77 -15 -187 -35 -245 -46 -58 -11 -111
-20 -119 -20 -21 0 -5 12 21 16 40 6 186 41 413 97 269 68 383 92 500 107 50
7 95 14 100 15 19 6 26 5 21 -4z m-2992 -36 c-4 -8 -10 -15 -15 -15 -4 0 -6 7
-3 15 4 8 10 15 15 15 4 0 6 -7 3 -15z m21 -15 c3 -5 1 -10 -4 -10 -6 0 -11 5
-11 10 0 6 2 10 4 10 3 0 8 -4 11 -10z m959 -25 c-4 -8 -10 -12 -15 -9 -14 8
-10 24 6 24 9 0 12 -6 9 -15z m-144 -15 c0 -5 -5 -10 -11 -10 -5 0 -7 5 -4 10
3 6 8 10 11 10 2 0 4 -4 4 -10z m10 -50 c0 -5 -7 -10 -16 -10 -8 0 -12 5 -9
10 3 6 10 10 16 10 5 0 9 -4 9 -10z m1167 -26 c-3 -3 -12 -4 -19 -1 -8 3 -5 6
6 6 11 1 17 -2 13 -5z m-52 -14 c-11 -5 -27 -9 -35 -9 -9 0 -8 4 5 9 11 5 27
9 35 9 9 0 8 -4 -5 -9z m1405 0 c0 -5 -5 -10 -11 -10 -5 0 -7 5 -4 10 3 6 8
10 11 10 2 0 4 -4 4 -10z m-2396 -35 c-6 -16 -24 -21 -24 -7 0 11 11 22 21 22
5 0 6 -7 3 -15z m803 -11 c-3 -3 -12 -4 -19 -1 -8 3 -5 6 6 6 11 1 17 -2 13
-5z m-1050 -36 c-3 -8 -6 -5 -6 6 -1 11 2 17 5 13 3 -3 4 -12 1 -19z m1123 12
c-14 -4 -38 -8 -55 -8 -29 0 -29 0 -5 8 14 4 39 8 55 8 29 0 29 0 5 -8z
m-2073 -6 c-3 -3 -12 -4 -19 -1 -8 3 -5 6 6 6 11 1 17 -2 13 -5z m357 -51 c3
-10 6 -22 7 -28 0 -5 5 -16 11 -23 9 -10 15 -9 29 4 10 9 16 21 13 25 -3 5 0
9 5 9 16 0 13 -16 -4 -30 -8 -7 -12 -16 -9 -21 3 -5 -2 -12 -10 -15 -9 -3 -13
-10 -10 -15 3 -5 -2 -6 -10 -3 -10 4 -16 1 -16 -8 0 -19 30 -55 36 -43 15 34
21 37 45 25 13 -7 27 -18 31 -23 3 -6 19 -11 35 -13 15 -2 38 -14 50 -28 18
-21 23 -23 33 -11 7 8 22 13 34 11 11 -3 29 -5 39 -5 9 -1 17 -6 17 -11 0 -6
-6 -9 -12 -8 -8 2 -12 -5 -10 -15 2 -9 -2 -16 -9 -15 -6 2 -15 -9 -20 -25 -6
-21 -3 -30 13 -41 15 -11 19 -23 17 -51 -3 -27 1 -41 14 -50 20 -14 20 -20 6
-47 -6 -10 -5 -19 1 -23 10 -6 12 3 15 72 0 18 5 36 9 40 10 10 46 -34 46 -56
0 -9 6 -28 14 -43 8 -15 11 -29 8 -33 -3 -3 -7 -15 -9 -26 -2 -11 -10 -27 -17
-35 -8 -8 -18 -23 -21 -34 -7 -23 -35 -27 -35 -5 0 8 -5 15 -11 15 -8 0 -8 5
1 15 10 12 10 15 0 15 -7 0 -10 6 -7 14 7 17 -14 28 -32 17 -9 -6 -8 -11 4
-21 8 -7 15 -18 15 -24 0 -7 -3 -7 -8 -1 -4 6 -18 10 -31 11 -24 1 -24 1 5
-24 18 -16 22 -23 10 -19 -16 6 -17 5 -6 -8 22 -27 3 -27 -23 -1 -15 14 -32
26 -39 26 -9 0 -9 -3 0 -12 18 -18 14 -32 -5 -17 -14 12 -16 12 -11 -1 2 -8
16 -16 30 -18 20 -2 25 -9 26 -32 1 -39 12 -57 23 -39 7 11 9 10 9 -3 0 -10
14 -21 35 -28 33 -11 65 -51 65 -80 0 -18 -18 -11 -25 10 -10 30 -24 14 -19
-20 5 -30 -9 -42 -20 -17 -3 6 -3 1 0 -13 5 -20 4 -23 -7 -12 -18 17 -39 15
-39 -3 0 -21 -11 -18 -39 10 -13 14 -33 25 -45 25 -19 1 -19 2 -3 11 9 5 17
18 18 27 0 14 2 13 9 -3 7 -17 9 -14 9 13 1 20 -3 31 -9 27 -5 -3 -10 -2 -10
4 0 5 5 13 10 16 6 4 8 15 5 25 -3 11 -2 28 4 38 12 22 5 33 -15 25 -11 -4
-12 -9 -3 -19 9 -11 8 -14 -4 -14 -11 0 -14 -5 -10 -17 6 -14 2 -14 -26 3 -18
10 -38 26 -44 34 -10 13 -10 13 3 3 14 -10 15 -7 12 22 -3 21 0 35 7 35 7 0 7
8 0 27 -7 20 -7 29 2 32 8 2 8 6 -2 12 -21 13 -3 22 20 10 19 -11 20 -10 10
15 -7 20 -7 29 2 34 8 6 8 9 -1 15 -9 6 -9 9 0 15 8 5 7 12 -5 24 -15 15 -15
16 2 17 10 0 13 3 6 6 -20 7 -15 23 5 17 11 -4 8 1 -8 15 -14 11 -32 26 -40
33 -20 17 -54 23 -45 9 9 -15 -8 -14 -24 2 -11 10 -13 9 -8 -5 3 -10 0 -19
-10 -22 -9 -4 -13 -13 -9 -22 5 -13 2 -15 -14 -11 -23 6 -26 -3 -8 -21 9 -9 7
-12 -12 -12 -19 0 -21 -3 -12 -12 16 -16 15 -28 -1 -28 -7 0 -21 -13 -30 -30
-10 -16 -23 -30 -28 -30 -6 0 -7 -4 -4 -10 3 -5 1 -10 -5 -10 -6 0 -8 -4 -5
-10 3 -5 -3 -10 -15 -10 -12 0 -19 -4 -16 -8 2 -4 -5 -9 -16 -9 -23 -2 -71
-47 -61 -57 12 -12 -13 -6 -26 7 -8 6 -11 7 -8 2 8 -16 -8 -40 -17 -26 -4 6
-3 11 1 11 5 0 9 9 10 20 1 11 -2 18 -7 15 -6 -3 -8 0 -5 7 2 7 -9 28 -25 46
-34 37 -49 43 -26 10 21 -29 20 -62 0 -83 -14 -13 -19 -14 -25 -3 -5 7 -9 9
-9 3 -1 -9 -40 63 -40 72 0 2 5 1 10 -2 18 -11 10 15 -11 36 -16 16 -23 18
-34 9 -12 -10 -17 -5 -30 27 -42 100 -74 150 -112 178 -43 31 -59 60 -40 72 6
3 36 5 68 4 47 -2 62 2 83 20 14 12 26 29 26 36 0 16 12 17 27 2 18 -18 45
-17 102 2 56 20 69 31 101 90 11 22 31 41 48 47 15 5 41 25 57 43 28 32 31 33
46 18 10 -10 20 -25 23 -36z m86 7 c0 -5 -4 -10 -10 -10 -5 0 -10 5 -10 10 0
6 5 10 10 10 6 0 10 -4 10 -10z m100 -95 c0 -21 -17 -27 -39 -13 -18 11 -18
13 -3 24 19 14 42 8 42 -11z m-53 -18 c15 6 16 5 3 -9 -20 -21 -40 -11 -39 21
0 25 1 25 9 4 7 -16 14 -21 27 -16z m457 -112 c-29 -22 -42 -17 -15 6 13 11
26 17 29 14 3 -3 -3 -12 -14 -20z m-197 -10 c0 -8 -6 -15 -13 -15 -8 0 -11 6
-8 15 4 8 9 15 13 15 4 0 8 -7 8 -15z m-290 -121 c-3 -3 -12 -4 -19 -1 -8 3
-5 6 6 6 11 1 17 -2 13 -5z m-29 -24 c7 -11 8 -20 2 -20 -5 0 -14 9 -20 20 -6
11 -7 20 -3 20 5 0 14 -9 21 -20z m447 -10 c3 -6 -1 -7 -9 -4 -18 7 -21 14 -7
14 6 0 13 -4 16 -10z m-64 -56 c21 -24 22 -26 3 -16 -25 13 -50 42 -37 42 5 0
20 -12 34 -26z m65 -15 c21 -22 24 -28 10 -23 -15 6 -17 4 -11 -7 4 -8 5 -11
1 -7 -4 3 -6 9 -4 11 2 3 -8 17 -21 31 -14 14 -20 26 -15 26 6 0 23 -14 40
-31z m-26 -125 c0 -8 9 -24 20 -36 19 -21 28 -54 12 -44 -4 2 -8 -7 -7 -22 0
-15 5 -26 11 -25 12 2 6 -55 -7 -62 -9 -6 -59 56 -59 75 0 9 -3 10 -13 1 -11
-8 -16 -6 -25 12 -11 24 -13 57 -2 57 3 0 6 15 5 33 0 17 4 35 9 39 6 4 2 16
-9 29 -13 15 -5 11 23 -10 23 -18 42 -39 42 -47z m-820 -74 c6 -11 8 -20 6
-20 -3 0 -10 9 -16 20 -6 11 -8 20 -6 20 3 0 10 -9 16 -20z m598 -25 c-3 -3
-9 2 -12 12 -6 14 -5 15 5 6 7 -7 10 -15 7 -18z m-492 0 c12 -30 -31 -55 -53
-30 -4 4 -2 5 5 1 8 -5 12 -1 12 12 0 32 26 45 36 17z m784 -1 c0 -8 4 -13 9
-10 9 6 35 -53 27 -61 -2 -3 -7 5 -11 16 -3 12 -10 21 -15 21 -4 0 -15 11 -24
25 -14 22 -15 25 -1 25 8 0 15 -7 15 -16z m-435 -44 c-3 -6 1 -13 9 -16 9 -3
14 -10 11 -15 -6 -9 -45 20 -45 33 0 5 7 8 16 8 8 0 12 -5 9 -10z m443 -24
c-1 -14 -6 -23 -9 -20 -10 6 -7 44 3 44 4 0 7 -11 6 -24z m524 -74 c4 -2 8 -9
8 -15 0 -7 19 -32 41 -57 23 -25 53 -58 68 -74 25 -28 25 -28 3 -21 -12 3 -33
16 -45 28 -35 33 -133 159 -140 180 -14 38 6 37 31 0 14 -21 29 -39 34 -41z
m-972 46 c0 -13 -23 -5 -28 10 -2 7 2 10 12 6 9 -3 16 -11 16 -16z m418 -81
c28 -63 40 -103 54 -191 2 -11 -4 -20 -14 -21 -12 -2 -20 11 -31 54 -14 51
-15 53 -16 21 -2 -34 -2 -33 -31 30 -22 49 -30 59 -31 40 0 -14 -3 -20 -5 -13
-3 6 -1 26 4 45 6 24 14 32 27 30 18 -3 17 14 -1 62 -3 9 -2 16 3 16 5 0 24
-33 41 -73z m436 -39 c15 -27 22 -48 16 -48 -5 0 -10 4 -10 9 0 5 -7 16 -15
24 -7 8 -17 28 -21 43 -9 37 -3 31 30 -28z m-614 -14 c0 -17 4 -22 16 -17 11
4 15 0 14 -13 -5 -48 0 -74 16 -74 11 0 15 -6 11 -19 -3 -14 0 -18 17 -15 11
2 15 2 9 -2 -7 -3 -13 -10 -13 -15 0 -12 27 -12 32 1 2 5 13 7 26 3 14 -3 21
-11 18 -19 -3 -8 1 -14 9 -14 7 0 21 -7 29 -16 9 -8 16 -12 16 -8 0 3 7 1 15
-6 9 -7 14 -19 11 -26 -2 -6 4 -14 15 -17 10 -3 19 -11 19 -18 0 -7 -3 -9 -7
-6 -3 4 -12 2 -20 -5 -10 -8 -12 -8 -8 4 4 9 0 15 -10 15 -8 0 -15 -4 -15 -9
0 -4 -7 -8 -15 -8 -11 0 -14 -7 -10 -23 9 -33 -18 -55 -42 -36 -11 10 -14 10
-9 2 4 -7 3 -13 -3 -13 -5 0 -15 8 -20 18 -6 9 -11 13 -11 9 0 -5 -5 -5 -11
-1 -8 4 -7 9 2 15 8 4 19 3 26 -3 16 -13 17 4 1 20 -9 9 -8 12 7 12 30 0 7 14
-27 16 -48 4 -64 25 -48 64 10 24 10 34 1 43 -9 9 -14 8 -22 -3 -9 -13 -10
-12 -5 2 3 10 1 20 -4 23 -5 3 -6 13 -3 23 3 9 4 15 2 12 -33 -40 -42 -52 -31
-46 6 4 12 2 12 -4 0 -6 -6 -13 -14 -16 -8 -3 -12 -13 -8 -26 3 -14 1 -19 -6
-14 -7 4 -12 14 -12 22 0 8 -11 19 -25 24 -28 11 -32 28 -10 56 8 10 15 26 15
35 0 27 25 69 37 64 16 -5 27 11 13 20 -16 10 -12 25 5 19 8 -4 15 -17 15 -30z
m-596 -28 c3 -27 -9 -36 -17 -13 -4 14 3 50 10 43 3 -2 6 -16 7 -30z m1225
-84 c7 -13 16 -20 22 -16 7 4 10 1 7 -7 -3 -8 2 -19 11 -26 14 -11 13 -12 -6
-13 -18 0 -30 14 -58 72 -40 82 -48 127 -10 58 13 -25 29 -55 34 -68z m-560
38 c0 -9 -6 -4 -14 10 -19 33 -19 49 0 24 8 -10 14 -26 14 -34z m-559 -126 c0
-8 -4 -12 -10 -9 -5 3 -10 13 -10 21 0 8 5 12 10 9 6 -3 10 -13 10 -21z m477
-6 c-3 -8 -6 -5 -6 6 -1 11 2 17 5 13 3 -3 4 -12 1 -19z m680 -10 c-3 -7 -5
-2 -5 12 0 14 2 19 5 13 2 -7 2 -19 0 -25z m33 22 c0 -5 -2 -10 -4 -10 -3 0
-8 5 -11 10 -3 6 -1 10 4 10 6 0 11 -4 11 -10z m-1172 -60 c8 -13 9 -26 4 -37
-7 -12 -11 -9 -21 17 -13 39 -13 40 -3 40 4 0 13 -9 20 -20z m1212 6 c0 -2 -7
-7 -16 -10 -8 -3 -12 -2 -9 4 6 10 25 14 25 6z m-59 -93 c-10 -17 -10 -16 -11
3 0 23 13 41 18 25 2 -6 -1 -18 -7 -28z m-71 -33 c0 -5 -4 -10 -10 -10 -5 0
-10 5 -10 10 0 6 5 10 10 10 6 0 10 -4 10 -10z m-345 -49 c38 15 51 9 25 -11
-14 -11 -31 -20 -38 -20 -7 0 -20 -7 -29 -15 -19 -19 -48 -16 -48 5 0 8 10 19
23 25 12 5 22 14 22 19 0 4 6 4 13 -2 7 -5 21 -6 32 -1z m-625 -22 c0 -5 -4
-9 -10 -9 -5 0 -10 7 -10 16 0 8 5 12 10 9 6 -3 10 -10 10 -16z m64 -14 c3 -8
1 -15 -4 -15 -6 0 -10 7 -10 15 0 8 2 15 4 15 2 0 6 -7 10 -15z m897 -18 c-10
-9 -11 -8 -5 6 3 10 9 15 12 12 3 -3 0 -11 -7 -18z m39 11 c0 -9 4 -8 11 2 9
13 10 13 6 0 -5 -18 -29 -20 -34 -2 -3 6 0 12 6 12 6 0 11 -6 11 -12z m43 -52
c12 2 16 2 10 -2 -18 -8 -16 -24 1 -24 8 0 18 -4 21 -10 4 -6 -1 -7 -11 -3
-12 4 -15 3 -10 -5 4 -7 16 -12 27 -12 11 0 17 -4 14 -10 -3 -5 1 -10 9 -10
19 0 20 -5 5 -32 -6 -11 -12 -32 -14 -48 -3 -23 -1 -27 14 -23 32 8 76 -23 88
-61 9 -30 9 -38 -5 -45 -13 -7 -66 0 -75 11 -6 8 -34 -28 -30 -39 3 -8 -3 -13
-17 -13 -19 0 -21 4 -16 28 5 20 4 23 -4 12 -5 -8 -10 -10 -10 -5 0 6 -5 3
-10 -5 -6 -10 -10 -11 -10 -2 0 17 -39 54 -50 47 -6 -4 -10 0 -10 9 0 17 78
18 101 0 33 -26 41 -26 24 0 -10 14 -21 26 -26 26 -5 0 -9 7 -9 15 0 8 -4 15
-10 15 -5 0 -10 -4 -10 -8 0 -4 -11 -8 -24 -8 -14 0 -22 4 -20 8 5 8 -9 11
-22 6 -7 -4 -33 43 -34 60 0 7 13 12 31 12 18 0 28 4 24 10 -4 6 -11 8 -16 5
-5 -4 -12 1 -15 10 -5 13 -9 14 -14 4 -6 -9 -12 -9 -24 4 -21 20 -20 29 4 57
15 17 30 23 55 22 21 -1 35 3 36 11 0 8 2 9 5 1 3 -7 15 -10 27 -8z m-317 -8
c5 -7 3 -8 -6 -3 -10 6 -12 4 -7 -8 3 -9 1 -19 -5 -23 -7 -4 -8 -3 -4 5 4 6 0
14 -8 17 -9 3 -16 10 -16 15 0 13 38 11 46 -3z m-636 -74 c0 -14 -3 -14 -15
-4 -8 7 -15 14 -15 16 0 2 7 4 15 4 8 0 15 -7 15 -16z m824 -49 c-4 -8 -8 -15
-10 -15 -2 0 -4 7 -4 15 0 8 4 15 10 15 5 0 7 -7 4 -15z m-706 -93 c3 -9 -2
-13 -14 -10 -9 1 -19 9 -22 16 -3 9 2 13 14 10 9 -1 19 -9 22 -16z m669 -74
c-3 -8 -6 -5 -6 6 -1 11 2 17 5 13 3 -3 4 -12 1 -19z m423 -30 c0 -21 -16 -23
-57 -5 -33 14 -34 44 0 49 27 5 57 -19 57 -44z m-41 -57 c34 -33 51 -57 47
-67 -3 -9 -1 -12 4 -9 6 3 10 -1 10 -9 0 -9 -5 -16 -11 -16 -5 0 -7 -5 -3 -11
11 -19 -55 20 -83 49 -52 52 -103 120 -103 136 0 3 19 -1 43 -8 28 -8 62 -31
96 -65z m170 28 c-11 -6 -10 -9 4 -15 9 -3 14 -10 11 -16 -6 -10 -26 14 -37
45 -6 15 -4 16 15 6 16 -9 18 -13 7 -20z m-264 -56 c11 -18 23 -33 27 -33 4 0
8 -6 8 -13 0 -7 15 -20 33 -30 18 -10 41 -31 52 -47 11 -17 23 -30 27 -30 4 0
23 -16 42 -35 20 -19 38 -35 41 -35 3 0 14 -9 25 -20 21 -21 46 -28 34 -9 -4
7 1 7 15 -1 12 -6 20 -17 18 -23 -2 -7 2 -18 10 -25 7 -7 13 -21 13 -30 0 -14
-2 -15 -10 -2 -5 8 -12 11 -16 8 -12 -12 -57 23 -178 137 -11 11 -38 29 -59
40 -50 26 -84 58 -130 123 -39 55 -45 68 -24 56 7 -5 7 -1 -2 10 -12 14 -12
19 -2 25 15 10 49 -20 76 -66z m324 -100 c1 -28 -3 -54 -7 -57 -4 -2 -8 30 -9
72 -1 49 2 70 7 57 5 -11 9 -43 9 -72z m-93 5 c-1 -16 4 -23 17 -22 12 1 17
-5 17 -22 0 -28 -12 -31 -34 -8 -9 8 -16 11 -16 5 0 -6 -7 -8 -15 -5 -8 4 -15
13 -15 21 0 8 -5 11 -10 8 -12 -7 -26 22 -16 33 4 3 11 0 17 -8 8 -13 10 -13
19 0 5 8 10 11 10 6 0 -6 5 -5 12 2 16 16 16 16 14 -10z m-146 -98 c33 -33 60
-65 60 -70 0 -6 9 -20 19 -32 11 -11 17 -27 14 -36 -4 -10 -2 -13 5 -8 7 4 12
3 12 -2 0 -4 8 -17 18 -28 10 -11 21 -30 25 -43 6 -23 5 -23 -21 5 -69 76
-131 154 -165 206 -59 89 -50 91 33 8z m313 -39 c19 -60 21 -87 8 -96 -6 -3
-13 11 -16 32 -7 47 -22 114 -31 139 -6 17 -5 17 8 -1 8 -11 22 -44 31 -74z
m-1248 39 c3 -5 1 -10 -4 -10 -6 0 -11 5 -11 10 0 6 2 10 4 10 3 0 8 -4 11
-10z m600 -40 c3 -5 1 -10 -4 -10 -6 0 -11 5 -11 10 0 6 2 10 4 10 3 0 8 -4
11 -10z m279 -50 c-6 -5 -24 21 -24 34 0 6 6 1 14 -10 8 -10 12 -21 10 -24z
m-934 20 c0 -5 -5 -10 -11 -10 -5 0 -7 5 -4 10 3 6 8 10 11 10 2 0 4 -4 4 -10z
m1165 -70 c10 -11 16 -20 13 -20 -3 0 -13 9 -23 20 -10 11 -16 20 -13 20 3 0
13 -9 23 -20z"/>
<path d="M1690 3800 c-13 -8 -12 -10 3 -10 9 0 17 5 17 10 0 12 -1 12 -20 0z"/>
<path d="M2510 2331 c0 -6 5 -13 10 -16 6 -3 10 1 10 9 0 9 -4 16 -10 16 -5 0
-10 -4 -10 -9z"/>
<path d="M2660 2478 c0 -9 9 -26 20 -39 17 -21 19 -21 13 -4 -3 11 -12 29 -20
40 -10 16 -13 16 -13 3z"/>
<path d="M2558 2130 c-7 -24 -3 -38 8 -28 3 4 4 17 2 30 l-3 23 -7 -25z"/>
<path d="M2601 1954 c0 -11 3 -14 6 -6 3 7 2 16 -1 19 -3 4 -6 -2 -5 -13z"/>
<path d="M1476 3901 c-3 -5 6 -8 19 -8 14 0 28 3 31 8 3 5 -6 9 -20 9 -14 0
-27 -4 -30 -9z"/>
<path d="M4310 3720 c-30 -4 -80 -18 -110 -33 -191 -89 -516 -218 -750 -297
-50 -17 -180 -83 -191 -97 -15 -17 57 4 236 68 172 63 353 130 425 159 30 12
78 29 105 39 28 10 93 34 146 53 52 20 117 39 143 42 50 7 106 40 106 63 0 14
-21 15 -110 3z"/>
<path d="M4085 3433 c-22 -5 -143 -41 -250 -76 -38 -12 -72 -25 -75 -29 -6 -7
-173 -54 -285 -78 -44 -10 -96 -23 -115 -28 -29 -9 -31 -10 -10 -11 14 0 81
13 150 30 69 17 159 38 200 48 41 10 116 31 165 46 50 15 119 36 155 46 62 17
130 46 130 55 0 5 -37 3 -65 -3z"/>
<path d="M4195 3280 c-13 -5 -14 -9 -5 -9 8 0 24 4 35 9 13 5 14 9 5 9 -8 0
-24 -4 -35 -9z"/>
<path d="M3278 3203 c6 -2 18 -2 25 0 6 3 1 5 -13 5 -14 0 -19 -2 -12 -5z"/>
<path d="M2676 3174 c-15 -14 -26 -28 -22 -31 3 -4 16 3 29 15 13 12 29 22 36
22 7 0 9 5 6 10 -9 15 -17 12 -49 -16z"/>
<path d="M5458 3170 c-2 -6 -13 -12 -25 -13 -28 -2 -20 -10 10 -11 15 -1 24 4
24 16 2 20 -3 24 -9 8z"/>
<path d="M2700 3130 c0 -5 7 -10 16 -10 8 0 12 5 9 10 -3 6 -10 10 -16 10 -5
0 -9 -4 -9 -10z"/>
<path d="M2624 3107 c-30 -37 -29 -59 3 -39 11 7 30 62 21 62 -2 0 -13 -10
-24 -23z"/>
<path d="M5375 3050 c-3 -5 -3 -11 2 -12 4 -1 -20 -4 -55 -7 -34 -3 -61 -10
-60 -16 2 -5 10 -8 18 -6 32 8 43 6 48 -9 5 -13 3 -13 -14 0 -17 14 -18 13 -7
-1 7 -9 9 -19 5 -24 -4 -4 3 -2 15 6 12 7 19 17 16 23 -3 5 -1 6 6 2 9 -6 9
-11 0 -22 -10 -12 -9 -13 5 -8 9 3 16 15 16 26 0 10 4 17 10 13 5 -3 7 -12 3
-21 -4 -12 1 -11 26 3 38 22 39 31 4 35 -16 2 -27 8 -25 16 3 15 -4 16 -13 2z"/>
<path d="M2577 3025 c-9 -14 -13 -26 -8 -30 6 -3 15 4 21 15 17 31 8 42 -13
15z"/>
<path d="M5040 2826 c0 -2 7 -6 15 -10 8 -3 15 -1 15 4 0 6 -7 10 -15 10 -8 0
-15 -2 -15 -4z"/>
<path d="M5094 2802 c1 -17 3 -19 11 -9 7 9 27 13 60 12 28 -1 44 0 37 2 -6 3
-10 8 -7 13 3 4 -19 7 -49 6 -49 -1 -53 -3 -52 -24z"/>
<path d="M4750 2640 c0 -5 7 -7 15 -4 8 4 15 8 15 10 0 2 -7 4 -15 4 -8 0 -15
-4 -15 -10z"/>
<path d="M3541 2626 c22 -22 277 -132 285 -123 3 3 -20 15 -51 26 -31 12 -93
39 -137 61 -69 35 -112 50 -97 36z"/>
<path d="M3630 2626 c0 -2 7 -7 16 -10 8 -3 12 -2 9 4 -6 10 -25 14 -25 6z"/>
<path d="M3440 2531 c0 -5 15 -18 33 -29 17 -12 50 -35 72 -51 22 -17 47 -34
55 -37 8 -4 22 -12 30 -19 8 -7 42 -26 75 -44 66 -36 44 -13 -32 33 -62 37
-127 79 -133 87 -15 17 -100 68 -100 60z"/>
<path d="M3873 2479 c22 -11 41 -18 44 -15 5 5 -62 36 -76 36 -3 -1 11 -10 32
-21z"/>
<path d="M4284 2385 c11 -8 25 -15 30 -15 6 0 2 7 -8 15 -11 8 -25 15 -30 15
-6 0 -2 -7 8 -15z"/>
<path d="M3797 2299 c12 -12 25 -20 28 -17 3 3 -7 13 -22 23 l-28 17 22 -23z"/>
<path d="M3785 2170 c32 -33 61 -57 64 -54 6 6 -100 114 -113 114 -6 0 16 -27
49 -60z"/>
<path d="M3571 2113 c24 -43 39 -54 39 -30 0 6 -14 26 -32 42 l-31 30 24 -42z"/>
<path d="M1981 2024 c0 -11 3 -14 6 -6 3 7 2 16 -1 19 -3 4 -6 -2 -5 -13z"/>
<path d="M3860 881 c0 -6 4 -13 10 -16 6 -3 7 1 4 9 -7 18 -14 21 -14 7z"/>
</g>
</svg>
